<svg width="1535" height="210" viewBox="0 0 1535 210" fill="none" xmlns="http://www.w3.org/2000/svg">
<mask id="path-1-inside-1_1277_22167" fill="white">
<path d="M49.9668 209.246C32.8509 209.246 20.2474 204.461 12.1562 194.892C4.0651 185.244 0.0195312 171.085 0.0195312 152.413V1.98779H39.9307V150.779C39.9307 154.202 40.1252 157.509 40.5142 160.699C40.9032 163.811 41.7979 166.378 43.1982 168.401C44.5986 170.424 46.8548 171.435 49.9668 171.435C53.1566 171.435 55.4517 170.463 56.8521 168.518C58.2524 166.495 59.1082 163.889 59.4194 160.699C59.8084 157.509 60.0029 154.202 60.0029 150.779V1.98779H99.9141V152.413C99.9141 171.085 95.8685 185.244 87.7773 194.892C79.6862 204.461 67.0827 209.246 49.9668 209.246ZM110.888 207.378V1.98779H165.154C176.512 1.98779 185.498 4.51628 192.111 9.57324C198.802 14.6302 203.587 21.8267 206.465 31.1626C209.344 40.4985 210.783 51.6239 210.783 64.5386C210.783 76.9865 209.577 87.8395 207.165 97.0977C204.754 106.278 200.436 113.397 194.212 118.454C188.066 123.511 179.313 126.039 167.954 126.039H151.266V207.378H110.888ZM151.266 89.1621H153.6C161.225 89.1621 165.893 87.0226 167.604 82.7437C169.316 78.4647 170.172 72.1629 170.172 63.8384C170.172 56.0584 169.316 50.0679 167.604 45.8667C165.971 41.5877 162.042 39.4482 155.818 39.4482H151.266V89.1621ZM266.92 209.246C252.06 209.246 240.079 204.617 230.977 195.358C221.952 186.1 217.44 173.147 217.44 156.498V61.7378C217.44 41.8211 221.368 26.5724 229.226 15.9917C237.162 5.41097 250.037 0.120605 267.854 0.120605C277.579 0.120605 286.214 1.90999 293.761 5.48877C301.385 9.06755 307.376 14.4357 311.732 21.5933C316.089 28.673 318.268 37.62 318.268 48.4341V83.9106H277.423V53.5688C277.423 47.4227 276.645 43.2993 275.089 41.1987C273.533 39.0203 271.121 37.9312 267.854 37.9312C264.041 37.9312 261.474 39.3315 260.151 42.1323C258.829 44.8553 258.168 48.5119 258.168 53.1021V155.914C258.168 161.593 258.984 165.6 260.618 167.934C262.33 170.268 264.742 171.435 267.854 171.435C271.355 171.435 273.805 169.996 275.206 167.117C276.684 164.239 277.423 160.504 277.423 155.914V118.92H318.734V157.781C318.734 175.831 314.183 188.94 305.081 197.109C295.978 205.2 283.258 209.246 266.92 209.246ZM376.739 209.246C360.323 209.246 347.758 204.305 339.045 194.425C330.409 184.466 326.091 170.112 326.091 151.363V53.8022C326.091 36.2196 330.37 22.877 338.928 13.7744C347.564 4.67188 360.167 0.120605 376.739 0.120605C393.31 0.120605 405.874 4.67188 414.432 13.7744C423.068 22.877 427.386 36.2196 427.386 53.8022V151.363C427.386 170.112 423.029 184.466 414.316 194.425C405.68 204.305 393.154 209.246 376.739 209.246ZM377.089 171.435C383.313 171.435 386.425 165.406 386.425 153.347V53.1021C386.425 42.9881 383.39 37.9312 377.322 37.9312C370.476 37.9312 367.053 43.1048 367.053 53.4521V153.58C367.053 159.96 367.831 164.55 369.387 167.351C370.943 170.074 373.51 171.435 377.089 171.435ZM439.177 207.378V1.98779H501.728L519 127.206L536.154 1.98779H599.289V207.378H561.712V59.4038L538.138 207.378H501.261L476.288 59.4038V207.378H439.177ZM610.846 207.378V1.98779H650.524V207.378H610.846ZM662.082 207.378V1.98779H704.327L723.233 100.365V1.98779H762.91V207.378H722.766L702.227 104.683V207.378H662.082ZM818.697 209.246C789.367 209.246 774.702 188.24 774.702 146.228V57.6533C774.702 19.2982 791.506 0.120605 825.116 0.120605C838.964 0.120605 849.584 2.92139 856.975 8.52295C864.365 14.0467 869.461 22.1379 872.262 32.7964C875.063 43.4549 876.463 56.4474 876.463 71.7739H836.319V53.5688C836.319 49.1343 835.696 45.4388 834.452 42.4824C833.285 39.4482 830.795 37.9312 826.983 37.9312C822.237 37.9312 819.086 39.526 817.53 42.7158C816.052 45.9056 815.313 49.4066 815.313 53.2188V152.763C815.313 158.287 816.013 162.799 817.414 166.3C818.892 169.723 821.731 171.435 825.933 171.435C830.289 171.435 833.168 169.723 834.568 166.3C836.046 162.799 836.786 158.209 836.786 152.53V123.238H825.816V87.7617H875.997V207.378H859.542L852.54 190.107C845.382 202.866 834.102 209.246 818.697 209.246ZM938.79 207.378V1.98779H1020.95V41.6655H980.568V81.6934H1019.31V120.321H980.568V167.351H1023.63V207.378H938.79ZM1051.41 207.378L1026.09 1.87109H1065.18L1080.23 141.677L1093.65 1.87109H1132.75L1107.43 207.378H1051.41ZM1139.99 207.378V1.98779H1222.15V41.6655H1181.77V81.6934H1220.51V120.321H1181.77V167.351H1224.83V207.378H1139.99ZM1233.7 207.378V1.98779H1275.95L1294.85 100.365V1.98779H1334.53V207.378H1294.39L1273.85 104.683V207.378H1233.7ZM1365.58 207.378V41.4321H1341.19V1.98779H1431.05V41.4321H1406.66V207.378H1365.58ZM1486.48 209.246C1467.73 209.246 1454.2 204.578 1445.87 195.242C1437.62 185.906 1433.5 171.046 1433.5 150.663V130.59H1474.11V156.264C1474.11 161.01 1474.81 164.744 1476.21 167.467C1477.69 170.112 1480.22 171.435 1483.8 171.435C1487.53 171.435 1490.1 170.346 1491.5 168.167C1492.98 165.989 1493.72 162.41 1493.72 157.431C1493.72 151.129 1493.1 145.878 1491.85 141.677C1490.61 137.398 1488.43 133.352 1485.32 129.54C1482.28 125.65 1478.04 121.138 1472.6 116.003L1454.16 98.498C1440.39 85.5055 1433.5 70.6458 1433.5 53.9189C1433.5 36.4141 1437.55 23.0715 1445.64 13.8911C1453.81 4.71077 1465.59 0.120605 1481 0.120605C1499.83 0.120605 1513.17 5.13867 1521.03 15.1748C1528.96 25.2109 1532.93 40.4596 1532.93 60.9209H1491.15V46.8003C1491.15 43.9995 1490.33 41.8211 1488.7 40.2651C1487.14 38.7091 1485 37.9312 1482.28 37.9312C1479.01 37.9312 1476.6 38.8647 1475.05 40.7319C1473.57 42.5213 1472.83 44.8553 1472.83 47.7339C1472.83 50.6125 1473.61 53.7244 1475.16 57.0698C1476.72 60.4152 1479.79 64.2663 1484.38 68.623L1508.07 91.3794C1512.82 95.8918 1517.17 100.676 1521.14 105.733C1525.11 110.713 1528.3 116.548 1530.71 123.238C1533.12 129.851 1534.33 137.942 1534.33 147.512C1534.33 166.806 1530.75 181.938 1523.59 192.908C1516.51 203.8 1504.14 209.246 1486.48 209.246Z"/>
</mask>
<path d="M12.1562 194.892L6.79291 199.39L6.80188 199.401L6.8109 199.411L12.1562 194.892ZM0.0195312 1.98779V-5.01221H-6.98047V1.98779H0.0195312ZM39.9307 1.98779H46.9307V-5.01221H39.9307V1.98779ZM40.5142 160.699L33.5656 161.546L33.5669 161.557L33.5682 161.567L40.5142 160.699ZM56.8521 168.518L62.5328 172.608L62.5706 172.555L62.6074 172.502L56.8521 168.518ZM59.4194 160.699L52.4709 159.851L52.4607 159.935L52.4525 160.019L59.4194 160.699ZM60.0029 1.98779V-5.01221H53.0029V1.98779H60.0029ZM99.9141 1.98779H106.914V-5.01221H99.9141V1.98779ZM87.7773 194.892L93.1227 199.411L93.1317 199.401L93.1407 199.39L87.7773 194.892ZM49.9668 202.246C34.1176 202.246 23.824 197.849 17.5016 190.372L6.8109 199.411C16.6708 211.072 31.5842 216.246 49.9668 216.246V202.246ZM17.5196 190.393C10.8924 182.492 7.01953 170.209 7.01953 152.413H-6.98047C-6.98047 171.961 -2.76223 187.997 6.79291 199.39L17.5196 190.393ZM7.01953 152.413V1.98779H-6.98047V152.413H7.01953ZM0.0195312 8.98779H39.9307V-5.01221H0.0195312V8.98779ZM32.9307 1.98779V150.779H46.9307V1.98779H32.9307ZM32.9307 150.779C32.9307 154.467 33.1402 158.058 33.5656 161.546L47.4627 159.851C47.1101 156.96 46.9307 153.937 46.9307 150.779H32.9307ZM33.5682 161.567C34.0597 165.499 35.2481 169.215 37.4429 172.385L48.9536 164.416C48.3476 163.541 47.7466 162.122 47.4601 159.83L33.5682 161.567ZM37.4429 172.385C40.4962 176.796 45.24 178.435 49.9668 178.435V164.435C49.1507 164.435 48.8305 164.301 48.8041 164.289C48.7947 164.285 48.8288 164.3 48.879 164.341C48.9294 164.383 48.954 164.417 48.9536 164.416L37.4429 172.385ZM49.9668 178.435C54.5934 178.435 59.404 176.953 62.5328 172.608L51.1713 164.427C51.1946 164.395 51.2384 164.346 51.2965 164.3C51.3532 164.255 51.3814 164.247 51.3494 164.26C51.2709 164.294 50.8752 164.435 49.9668 164.435V178.435ZM62.6074 172.502C64.8615 169.246 65.9934 165.406 66.3864 161.378L52.4525 160.019C52.223 162.371 51.6433 163.744 51.0967 164.533L62.6074 172.502ZM66.368 161.546C66.7934 158.058 67.0029 154.467 67.0029 150.779H53.0029C53.0029 153.937 52.8235 156.96 52.4709 159.851L66.368 161.546ZM67.0029 150.779V1.98779H53.0029V150.779H67.0029ZM60.0029 8.98779H99.9141V-5.01221H60.0029V8.98779ZM92.9141 1.98779V152.413H106.914V1.98779H92.9141ZM92.9141 152.413C92.9141 170.209 89.0412 182.492 82.414 190.393L93.1407 199.39C102.696 187.997 106.914 171.961 106.914 152.413H92.9141ZM82.432 190.372C76.1096 197.849 65.816 202.246 49.9668 202.246V216.246C68.3494 216.246 83.2628 211.072 93.1227 199.411L82.432 190.372ZM110.888 207.378H103.888V214.378H110.888V207.378ZM110.888 1.98779V-5.01221H103.888V1.98779H110.888ZM192.111 9.57324L187.859 15.1337L187.875 15.1457L187.89 15.1576L192.111 9.57324ZM207.165 97.0977L213.936 98.8763L213.937 98.8693L213.939 98.8623L207.165 97.0977ZM194.212 118.454L189.798 113.021L189.781 113.034L189.764 113.048L194.212 118.454ZM151.266 126.039V119.039H144.266V126.039H151.266ZM151.266 207.378V214.378H158.266V207.378H151.266ZM151.266 89.1621H144.266V96.1621H151.266V89.1621ZM167.604 82.7437L174.104 85.3434L167.604 82.7437ZM167.604 45.8667L161.065 48.3636L161.092 48.436L161.122 48.5078L167.604 45.8667ZM151.266 39.4482V32.4482H144.266V39.4482H151.266ZM117.888 207.378V1.98779H103.888V207.378H117.888ZM110.888 8.98779H165.154V-5.01221H110.888V8.98779ZM165.154 8.98779C175.528 8.98779 182.843 11.2983 187.859 15.1337L196.363 4.01274C188.153 -2.26574 177.496 -5.01221 165.154 -5.01221V8.98779ZM187.89 15.1576C193.224 19.1889 197.256 25.054 199.776 33.2251L213.154 29.1001C209.917 18.5994 204.38 10.0715 196.332 3.98887L187.89 15.1576ZM199.776 33.2251C202.394 41.7176 203.783 52.1122 203.783 64.5386H217.783C217.783 51.1355 216.293 39.2795 213.154 29.1001L199.776 33.2251ZM203.783 64.5386C203.783 76.5591 202.616 86.7937 200.391 95.333L213.939 98.8623C216.538 88.8853 217.783 77.4139 217.783 64.5386H203.783ZM200.395 95.319C198.289 103.334 194.668 109.064 189.798 113.021L198.626 123.886C206.204 117.729 211.218 109.222 213.936 98.8763L200.395 95.319ZM189.764 113.048C185.311 116.712 178.37 119.039 167.954 119.039V133.039C180.256 133.039 190.82 130.309 198.659 123.859L189.764 113.048ZM167.954 119.039H151.266V133.039H167.954V119.039ZM144.266 126.039V207.378H158.266V126.039H144.266ZM151.266 200.378H110.888V214.378H151.266V200.378ZM151.266 96.1621H153.6V82.1621H151.266V96.1621ZM153.6 96.1621C162.004 96.1621 170.724 93.7919 174.104 85.3434L161.105 80.1439C160.995 80.4196 160.807 80.7799 159.903 81.194C158.818 81.6915 156.852 82.1621 153.6 82.1621V96.1621ZM174.104 85.3434C176.313 79.82 177.172 72.453 177.172 63.8384H163.172C163.172 71.8729 162.319 77.1094 161.105 80.1439L174.104 85.3434ZM177.172 63.8384C177.172 55.7073 176.301 48.6595 174.087 43.2256L161.122 48.5078C162.331 51.4763 163.172 56.4095 163.172 63.8384H177.172ZM174.144 43.3698C172.747 39.7126 170.247 36.7933 166.78 34.9053C163.465 33.1001 159.666 32.4482 155.818 32.4482V46.4482C158.194 46.4482 159.471 46.8661 160.085 47.2005C160.546 47.4519 160.827 47.7418 161.065 48.3636L174.144 43.3698ZM155.818 32.4482H151.266V46.4482H155.818V32.4482ZM144.266 39.4482V89.1621H158.266V39.4482H144.266ZM230.977 195.358L225.964 200.245L225.975 200.255L225.985 200.266L230.977 195.358ZM229.226 15.9917L223.626 11.7917L223.616 11.8049L223.606 11.8182L229.226 15.9917ZM293.761 5.48877L290.761 11.8136L290.774 11.8195L290.786 11.8254L293.761 5.48877ZM311.732 21.5933L305.753 25.2329L305.762 25.2474L305.771 25.2619L311.732 21.5933ZM318.268 83.9106V90.9106H325.268V83.9106H318.268ZM277.423 83.9106H270.423V90.9106H277.423V83.9106ZM275.089 41.1987L269.393 45.2674L269.428 45.3167L269.464 45.3653L275.089 41.1987ZM260.151 42.1323L266.448 45.1907L266.465 45.1561L266.481 45.1214L260.151 42.1323ZM260.618 167.934L254.884 171.948L254.928 172.011L254.973 172.074L260.618 167.934ZM275.206 167.117L268.979 163.92L268.944 163.987L268.911 164.055L275.206 167.117ZM277.423 118.92V111.92H270.423V118.92H277.423ZM318.734 118.92H325.734V111.92H318.734V118.92ZM305.081 197.109L309.731 202.341L309.744 202.33L309.756 202.319L305.081 197.109ZM266.92 202.246C253.642 202.246 243.561 198.174 235.968 190.451L225.985 200.266C236.597 211.06 250.479 216.246 266.92 216.246V202.246ZM235.989 190.472C228.575 182.867 224.44 171.868 224.44 156.498H210.44C210.44 174.425 215.328 189.334 225.964 200.245L235.989 190.472ZM224.44 156.498V61.7378H210.44V156.498H224.44ZM224.44 61.7378C224.44 42.597 228.238 29.0628 234.846 20.1652L223.606 11.8182C214.499 24.082 210.44 41.0453 210.44 61.7378H224.44ZM234.826 20.1917C241.012 11.9437 251.415 7.12061 267.854 7.12061V-6.87939C248.66 -6.87939 233.311 -1.12175 223.626 11.7917L234.826 20.1917ZM267.854 7.12061C276.711 7.12061 284.294 8.74678 290.761 11.8136L296.76 -0.836067C288.134 -4.92679 278.446 -6.87939 267.854 -6.87939V7.12061ZM290.786 11.8254C297.173 14.8231 302.115 19.2565 305.753 25.2329L317.712 17.9536C312.636 9.61497 305.598 3.31199 296.735 -0.847889L290.786 11.8254ZM305.771 25.2619C309.273 30.9529 311.268 38.5331 311.268 48.4341H325.268C325.268 36.7068 322.906 26.3932 317.694 17.9246L305.771 25.2619ZM311.268 48.4341V83.9106H325.268V48.4341H311.268ZM318.268 76.9106H277.423V90.9106H318.268V76.9106ZM284.423 83.9106V53.5688H270.423V83.9106H284.423ZM284.423 53.5688C284.423 50.2412 284.216 47.2055 283.718 44.5688C283.239 42.0275 282.389 39.2938 280.714 37.0321L269.464 45.3653C269.345 45.2043 269.662 45.5826 269.961 47.1646C270.241 48.6513 270.423 50.7504 270.423 53.5688H284.423ZM280.785 37.1301C277.619 32.6976 272.819 30.9312 267.854 30.9312V44.9312C268.721 44.9312 269.118 45.0762 269.232 45.1276C269.288 45.1529 269.307 45.1691 269.312 45.1727C269.316 45.1766 269.344 45.1995 269.393 45.2674L280.785 37.1301ZM267.854 30.9312C265.121 30.9312 262.294 31.4304 259.717 32.8362C257.052 34.2898 255.076 36.4862 253.822 39.1433L266.481 45.1214C266.531 45.0148 266.551 45.0096 266.513 45.0502C266.497 45.0678 266.477 45.0864 266.455 45.1028C266.445 45.1106 266.437 45.1166 266.43 45.1209C266.424 45.1251 266.42 45.127 266.421 45.1267C266.421 45.1265 266.442 45.1152 266.489 45.0979C266.537 45.0804 266.615 45.0559 266.729 45.0309C266.959 44.9803 267.324 44.9312 267.854 44.9312V30.9312ZM253.855 39.074C251.892 43.1145 251.168 47.9501 251.168 53.1021H265.168C265.168 49.0736 265.765 46.5961 266.448 45.1907L253.855 39.074ZM251.168 53.1021V155.914H265.168V53.1021H251.168ZM251.168 155.914C251.168 161.843 251.939 167.742 254.884 171.948L266.353 163.92C266.03 163.459 265.168 161.344 265.168 155.914H251.168ZM254.973 172.074C258.115 176.358 262.707 178.435 267.854 178.435V164.435C267.184 164.435 266.873 164.313 266.76 164.259C266.664 164.212 266.499 164.116 266.263 163.795L254.973 172.074ZM267.854 178.435C270.563 178.435 273.339 177.874 275.862 176.392C278.424 174.887 280.275 172.697 281.5 170.179L268.911 164.055C268.813 164.256 268.744 164.336 268.734 164.347C268.729 164.353 268.746 164.335 268.772 164.32C268.845 164.277 268.645 164.435 267.854 164.435V178.435ZM281.433 170.315C283.586 166.121 284.423 161.18 284.423 155.914H270.423C270.423 159.828 269.781 162.356 268.979 163.92L281.433 170.315ZM284.423 155.914V118.92H270.423V155.914H284.423ZM277.423 125.92H318.734V111.92H277.423V125.92ZM311.734 118.92V157.781H325.734V118.92H311.734ZM311.734 157.781C311.734 174.8 307.441 185.585 300.405 191.899L309.756 202.319C320.926 192.295 325.734 176.862 325.734 157.781H311.734ZM300.43 191.877C292.992 198.489 282.137 202.246 266.92 202.246V216.246C284.379 216.246 298.964 211.911 309.731 202.341L300.43 191.877ZM339.045 194.425L333.756 199.011L333.775 199.033L333.795 199.055L339.045 194.425ZM338.928 13.7744L333.85 8.95659L333.839 8.96806L333.828 8.97958L338.928 13.7744ZM414.432 13.7744L409.332 18.5692L409.343 18.5808L409.354 18.5922L414.432 13.7744ZM414.316 194.425L409.048 189.815L409.045 189.818L414.316 194.425ZM369.387 167.351L363.267 170.75L363.288 170.787L363.309 170.824L369.387 167.351ZM376.739 202.246C361.798 202.246 351.363 197.81 344.295 189.795L333.795 199.055C344.153 210.801 358.847 216.246 376.739 216.246V202.246ZM344.333 189.839C337.188 181.6 333.091 169.131 333.091 151.363H319.091C319.091 171.094 323.63 187.333 333.756 199.011L344.333 189.839ZM333.091 151.363V53.8022H319.091V151.363H333.091ZM333.091 53.8022C333.091 37.273 337.112 25.9256 344.028 18.5692L333.828 8.97958C323.628 19.8283 319.091 35.1661 319.091 53.8022H333.091ZM344.006 18.5922C350.934 11.2896 361.444 7.12061 376.739 7.12061V-6.87939C358.891 -6.87939 344.193 -1.94586 333.85 8.95659L344.006 18.5922ZM376.739 7.12061C392.037 7.12061 402.49 11.291 409.332 18.5692L419.532 8.97958C409.259 -1.94724 394.582 -6.87939 376.739 -6.87939V7.12061ZM409.354 18.5922C416.334 25.9498 420.386 37.2882 420.386 53.8022H434.386C434.386 35.151 429.802 19.8041 419.511 8.95659L409.354 18.5922ZM420.386 53.8022V151.363H434.386V53.8022H420.386ZM420.386 151.363C420.386 169.117 416.257 181.577 409.048 189.815L419.584 199.034C429.802 187.356 434.386 171.108 434.386 151.363H420.386ZM409.045 189.818C402.061 197.809 391.682 202.246 376.739 202.246V216.246C394.627 216.246 409.299 210.801 419.586 199.031L409.045 189.818ZM377.089 178.435C379.825 178.435 382.539 177.755 384.971 176.185C387.369 174.636 389.096 172.478 390.311 170.123C392.636 165.618 393.425 159.751 393.425 153.347H379.425C379.425 159.001 378.657 162.178 377.87 163.702C377.53 164.363 377.311 164.466 377.375 164.424C377.473 164.361 377.464 164.435 377.089 164.435V178.435ZM393.425 153.347V53.1021H379.425V153.347H393.425ZM393.425 53.1021C393.425 47.5736 392.636 42.2635 390.151 38.1224C387.325 33.4116 382.728 30.9312 377.322 30.9312V44.9312C377.848 44.9312 377.968 45.0332 377.905 44.9984C377.833 44.9584 377.934 44.9718 378.147 45.3253C378.696 46.2412 379.425 48.5166 379.425 53.1021H393.425ZM377.322 30.9312C371.837 30.9312 366.941 33.1748 363.782 37.9488C360.959 42.2155 360.053 47.7284 360.053 53.4521H374.053C374.053 48.8285 374.858 46.581 375.458 45.674C375.696 45.3146 375.869 45.2078 375.979 45.1527C376.116 45.0836 376.497 44.9312 377.322 44.9312V30.9312ZM360.053 53.4521V153.58H374.053V53.4521H360.053ZM360.053 153.58C360.053 160.188 360.799 166.308 363.267 170.75L375.506 163.951C374.862 162.792 374.053 159.731 374.053 153.58H360.053ZM363.309 170.824C366.309 176.074 371.424 178.435 377.089 178.435V164.435C376.182 164.435 375.824 164.265 375.759 164.23C375.721 164.21 375.697 164.192 375.669 164.164C375.639 164.134 375.564 164.053 375.464 163.878L363.309 170.824ZM439.177 207.378H432.177V214.378H439.177V207.378ZM439.177 1.98779V-5.01221H432.177V1.98779H439.177ZM501.728 1.98779L508.662 1.03133L507.829 -5.01221H501.728V1.98779ZM519 127.206L512.065 128.163L525.935 128.156L519 127.206ZM536.154 1.98779V-5.01221H530.048L529.219 1.03767L536.154 1.98779ZM599.289 1.98779H606.289V-5.01221H599.289V1.98779ZM599.289 207.378V214.378H606.289V207.378H599.289ZM561.712 207.378H554.712V214.378H561.712V207.378ZM561.712 59.4038H568.712L554.799 58.3026L561.712 59.4038ZM538.138 207.378V214.378H544.111L545.051 208.48L538.138 207.378ZM501.261 207.378L494.359 208.543L495.344 214.378H501.261V207.378ZM476.288 59.4038L483.19 58.2389L469.288 59.4038H476.288ZM476.288 207.378V214.378H483.288V207.378H476.288ZM446.177 207.378V1.98779H432.177V207.378H446.177ZM439.177 8.98779H501.728V-5.01221H439.177V8.98779ZM494.794 2.94425L512.065 128.163L525.934 126.25L508.662 1.03133L494.794 2.94425ZM525.935 128.156L543.09 2.93791L529.219 1.03767L512.064 126.256L525.935 128.156ZM536.154 8.98779H599.289V-5.01221H536.154V8.98779ZM592.289 1.98779V207.378H606.289V1.98779H592.289ZM599.289 200.378H561.712V214.378H599.289V200.378ZM568.712 207.378V59.4038H554.712V207.378H568.712ZM554.799 58.3026L531.225 206.277L545.051 208.48L568.624 60.5051L554.799 58.3026ZM538.138 200.378H501.261V214.378H538.138V200.378ZM508.164 206.214L483.19 58.2389L469.385 60.5687L494.359 208.543L508.164 206.214ZM469.288 59.4038V207.378H483.288V59.4038H469.288ZM476.288 200.378H439.177V214.378H476.288V200.378ZM610.846 207.378H603.846V214.378H610.846V207.378ZM610.846 1.98779V-5.01221H603.846V1.98779H610.846ZM650.524 1.98779H657.524V-5.01221H650.524V1.98779ZM650.524 207.378V214.378H657.524V207.378H650.524ZM617.846 207.378V1.98779H603.846V207.378H617.846ZM610.846 8.98779H650.524V-5.01221H610.846V8.98779ZM643.524 1.98779V207.378H657.524V1.98779H643.524ZM650.524 200.378H610.846V214.378H650.524V200.378ZM662.082 207.378H655.082V214.378H662.082V207.378ZM662.082 1.98779V-5.01221H655.082V1.98779H662.082ZM704.327 1.98779L711.202 0.666769L710.11 -5.01221H704.327V1.98779ZM723.233 100.365L716.358 101.686L730.233 100.365H723.233ZM723.233 1.98779V-5.01221H716.233V1.98779H723.233ZM762.91 1.98779H769.91V-5.01221H762.91V1.98779ZM762.91 207.378V214.378H769.91V207.378H762.91ZM722.766 207.378L715.902 208.751L717.027 214.378H722.766V207.378ZM702.227 104.683L709.091 103.31L695.227 104.683H702.227ZM702.227 207.378V214.378H709.227V207.378H702.227ZM669.082 207.378V1.98779H655.082V207.378H669.082ZM662.082 8.98779H704.327V-5.01221H662.082V8.98779ZM697.453 3.30882L716.358 101.686L730.107 99.0442L711.202 0.666769L697.453 3.30882ZM730.233 100.365V1.98779H716.233V100.365H730.233ZM723.233 8.98779H762.91V-5.01221H723.233V8.98779ZM755.91 1.98779V207.378H769.91V1.98779H755.91ZM762.91 200.378H722.766V214.378H762.91V200.378ZM729.63 206.006L709.091 103.31L695.363 106.056L715.902 208.751L729.63 206.006ZM695.227 104.683V207.378H709.227V104.683H695.227ZM702.227 200.378H662.082V214.378H702.227V200.378ZM856.975 8.52295L852.746 14.1017L852.765 14.1159L852.784 14.13L856.975 8.52295ZM876.463 71.7739V78.7739H883.463V71.7739H876.463ZM836.319 71.7739H829.319V78.7739H836.319V71.7739ZM834.452 42.4824L827.918 44.9953L827.958 45.0977L828 45.1988L834.452 42.4824ZM817.53 42.7158L811.239 39.6469L811.208 39.7094L811.179 39.7726L817.53 42.7158ZM817.414 166.3L810.914 168.9L810.949 168.988L810.987 169.075L817.414 166.3ZM834.568 166.3L828.12 163.577L828.104 163.614L828.089 163.65L834.568 166.3ZM836.786 123.238H843.786V116.238H836.786V123.238ZM825.816 123.238H818.816V130.238H825.816V123.238ZM825.816 87.7617V80.7617H818.816V87.7617H825.816ZM875.997 87.7617H882.997V80.7617H875.997V87.7617ZM875.997 207.378V214.378H882.997V207.378H875.997ZM859.542 207.378L853.055 210.008L854.826 214.378H859.542V207.378ZM852.54 190.107L859.027 187.477L853.558 173.985L846.435 186.682L852.54 190.107ZM818.697 202.246C805.936 202.246 797.258 197.818 791.44 189.484C785.302 180.692 781.702 166.634 781.702 146.228H767.702C767.702 167.833 771.434 185.284 779.961 197.498C788.808 210.17 802.128 216.246 818.697 216.246V202.246ZM781.702 146.228V57.6533H767.702V146.228H781.702ZM781.702 57.6533C781.702 39.3443 785.732 26.9199 792.57 19.1171C799.252 11.4909 809.648 7.12061 825.116 7.12061V-6.87939C806.974 -6.87939 792.162 -1.66087 782.04 9.89047C772.073 21.2652 767.702 37.6072 767.702 57.6533H781.702ZM825.116 7.12061C838.155 7.12061 847.041 9.77794 852.746 14.1017L861.203 2.94416C852.126 -3.93517 839.773 -6.87939 825.116 -6.87939V7.12061ZM852.784 14.13C858.673 18.5313 863.012 25.1391 865.492 34.5754L879.032 31.0174C875.91 19.1366 870.058 9.56217 861.165 2.91587L852.784 14.13ZM865.492 34.5754C868.094 44.4768 869.463 56.8329 869.463 71.7739H883.463C883.463 56.0619 882.032 42.433 879.032 31.0174L865.492 34.5754ZM876.463 64.7739H836.319V78.7739H876.463V64.7739ZM843.319 71.7739V53.5688H829.319V71.7739H843.319ZM843.319 53.5688C843.319 48.5346 842.62 43.8438 840.903 39.766L828 45.1988C828.773 47.0338 829.319 49.734 829.319 53.5688H843.319ZM840.985 39.9696C839.914 37.1852 838.068 34.7465 835.352 33.0914C832.721 31.4881 829.787 30.9312 826.983 30.9312V44.9312C827.991 44.9312 828.208 45.1327 828.067 45.0466C827.996 45.0033 827.922 44.938 827.871 44.8755C827.827 44.8199 827.857 44.8365 827.918 44.9953L840.985 39.9696ZM826.983 30.9312C820.62 30.9312 814.37 33.2277 811.239 39.6469L823.822 45.7848C823.934 45.5543 824.015 45.4773 824.222 45.3728C824.54 45.2119 825.348 44.9312 826.983 44.9312V30.9312ZM811.179 39.7726C809.238 43.9605 808.313 48.477 808.313 53.2188H822.313C822.313 50.3361 822.866 47.8507 823.881 45.659L811.179 39.7726ZM808.313 53.2188V152.763H822.313V53.2188H808.313ZM808.313 152.763C808.313 158.8 809.067 164.282 810.914 168.9L823.913 163.701C822.959 161.317 822.313 157.774 822.313 152.763H808.313ZM810.987 169.075C812.23 171.953 814.215 174.445 817.038 176.147C819.805 177.814 822.894 178.435 825.933 178.435V164.435C824.77 164.435 824.339 164.2 824.265 164.156C824.223 164.13 824.185 164.101 824.135 164.042C824.08 163.976 823.969 163.824 823.84 163.525L810.987 169.075ZM825.933 178.435C829 178.435 832.136 177.834 834.937 176.168C837.82 174.454 839.835 171.915 841.047 168.951L828.089 163.65C827.982 163.913 827.893 164.029 827.863 164.065C827.838 164.096 827.82 164.112 827.782 164.135C827.704 164.181 827.222 164.435 825.933 164.435V178.435ZM841.017 169.023C842.993 164.344 843.786 158.725 843.786 152.53H829.786C829.786 157.694 829.1 161.255 828.12 163.577L841.017 169.023ZM843.786 152.53V123.238H829.786V152.53H843.786ZM836.786 116.238H825.816V130.238H836.786V116.238ZM832.816 123.238V87.7617H818.816V123.238H832.816ZM825.816 94.7617H875.997V80.7617H825.816V94.7617ZM868.997 87.7617V207.378H882.997V87.7617H868.997ZM875.997 200.378H859.542V214.378H875.997V200.378ZM866.029 204.748L859.027 187.477L846.053 192.737L853.055 210.008L866.029 204.748ZM846.435 186.682C840.595 197.093 831.735 202.246 818.697 202.246V216.246C836.468 216.246 850.17 208.64 858.645 193.532L846.435 186.682ZM938.79 207.378H931.79V214.378H938.79V207.378ZM938.79 1.98779V-5.01221H931.79V1.98779H938.79ZM1020.95 1.98779H1027.95V-5.01221H1020.95V1.98779ZM1020.95 41.6655V48.6655H1027.95V41.6655H1020.95ZM980.568 41.6655V34.6655H973.568V41.6655H980.568ZM980.568 81.6934H973.568V88.6934H980.568V81.6934ZM1019.31 81.6934H1026.31V74.6934H1019.31V81.6934ZM1019.31 120.321V127.321H1026.31V120.321H1019.31ZM980.568 120.321V113.321H973.568V120.321H980.568ZM980.568 167.351H973.568V174.351H980.568V167.351ZM1023.63 167.351H1030.63V160.351H1023.63V167.351ZM1023.63 207.378V214.378H1030.63V207.378H1023.63ZM945.79 207.378V1.98779H931.79V207.378H945.79ZM938.79 8.98779H1020.95V-5.01221H938.79V8.98779ZM1013.95 1.98779V41.6655H1027.95V1.98779H1013.95ZM1020.95 34.6655H980.568V48.6655H1020.95V34.6655ZM973.568 41.6655V81.6934H987.568V41.6655H973.568ZM980.568 88.6934H1019.31V74.6934H980.568V88.6934ZM1012.31 81.6934V120.321H1026.31V81.6934H1012.31ZM1019.31 113.321H980.568V127.321H1019.31V113.321ZM973.568 120.321V167.351H987.568V120.321H973.568ZM980.568 174.351H1023.63V160.351H980.568V174.351ZM1016.63 167.351V207.378H1030.63V167.351H1016.63ZM1023.63 200.378H938.79V214.378H1023.63V200.378ZM1051.41 207.378L1044.46 208.235L1045.22 214.378H1051.41V207.378ZM1026.09 1.87109V-5.12891H1018.17L1019.14 2.7272L1026.09 1.87109ZM1065.18 1.87109L1072.14 1.12167L1071.47 -5.12891H1065.18V1.87109ZM1080.23 141.677L1073.27 142.426L1087.2 142.346L1080.23 141.677ZM1093.65 1.87109V-5.12891H1087.29L1086.69 1.20222L1093.65 1.87109ZM1132.75 1.87109L1139.7 2.7272L1140.66 -5.12891H1132.75V1.87109ZM1107.43 207.378V214.378H1113.62L1114.37 208.235L1107.43 207.378ZM1058.36 206.522L1033.03 1.01499L1019.14 2.7272L1044.46 208.235L1058.36 206.522ZM1026.09 8.87109H1065.18V-5.12891H1026.09V8.87109ZM1058.22 2.62052L1073.27 142.426L1087.19 140.927L1072.14 1.12167L1058.22 2.62052ZM1087.2 142.346L1100.62 2.53997L1086.69 1.20222L1073.27 141.008L1087.2 142.346ZM1093.65 8.87109H1132.75V-5.12891H1093.65V8.87109ZM1125.8 1.01499L1100.48 206.522L1114.37 208.235L1139.7 2.7272L1125.8 1.01499ZM1107.43 200.378H1051.41V214.378H1107.43V200.378ZM1139.99 207.378H1132.99V214.378H1139.99V207.378ZM1139.99 1.98779V-5.01221H1132.99V1.98779H1139.99ZM1222.15 1.98779H1229.15V-5.01221H1222.15V1.98779ZM1222.15 41.6655V48.6655H1229.15V41.6655H1222.15ZM1181.77 41.6655V34.6655H1174.77V41.6655H1181.77ZM1181.77 81.6934H1174.77V88.6934H1181.77V81.6934ZM1220.51 81.6934H1227.51V74.6934H1220.51V81.6934ZM1220.51 120.321V127.321H1227.51V120.321H1220.51ZM1181.77 120.321V113.321H1174.77V120.321H1181.77ZM1181.77 167.351H1174.77V174.351H1181.77V167.351ZM1224.83 167.351H1231.83V160.351H1224.83V167.351ZM1224.83 207.378V214.378H1231.83V207.378H1224.83ZM1146.99 207.378V1.98779H1132.99V207.378H1146.99ZM1139.99 8.98779H1222.15V-5.01221H1139.99V8.98779ZM1215.15 1.98779V41.6655H1229.15V1.98779H1215.15ZM1222.15 34.6655H1181.77V48.6655H1222.15V34.6655ZM1174.77 41.6655V81.6934H1188.77V41.6655H1174.77ZM1181.77 88.6934H1220.51V74.6934H1181.77V88.6934ZM1213.51 81.6934V120.321H1227.51V81.6934H1213.51ZM1220.51 113.321H1181.77V127.321H1220.51V113.321ZM1174.77 120.321V167.351H1188.77V120.321H1174.77ZM1181.77 174.351H1224.83V160.351H1181.77V174.351ZM1217.83 167.351V207.378H1231.83V167.351H1217.83ZM1224.83 200.378H1139.99V214.378H1224.83V200.378ZM1233.7 207.378H1226.7V214.378H1233.7V207.378ZM1233.7 1.98779V-5.01221H1226.7V1.98779H1233.7ZM1275.95 1.98779L1282.82 0.666769L1281.73 -5.01221H1275.95V1.98779ZM1294.85 100.365L1287.98 101.686L1301.85 100.365H1294.85ZM1294.85 1.98779V-5.01221H1287.85V1.98779H1294.85ZM1334.53 1.98779H1341.53V-5.01221H1334.53V1.98779ZM1334.53 207.378V214.378H1341.53V207.378H1334.53ZM1294.39 207.378L1287.52 208.751L1288.65 214.378H1294.39V207.378ZM1273.85 104.683L1280.71 103.31L1266.85 104.683H1273.85ZM1273.85 207.378V214.378H1280.85V207.378H1273.85ZM1240.7 207.378V1.98779H1226.7V207.378H1240.7ZM1233.7 8.98779H1275.95V-5.01221H1233.7V8.98779ZM1269.07 3.30882L1287.98 101.686L1301.73 99.0442L1282.82 0.666769L1269.07 3.30882ZM1301.85 100.365V1.98779H1287.85V100.365H1301.85ZM1294.85 8.98779H1334.53V-5.01221H1294.85V8.98779ZM1327.53 1.98779V207.378H1341.53V1.98779H1327.53ZM1334.53 200.378H1294.39V214.378H1334.53V200.378ZM1301.25 206.006L1280.71 103.31L1266.98 106.056L1287.52 208.751L1301.25 206.006ZM1266.85 104.683V207.378H1280.85V104.683H1266.85ZM1273.85 200.378H1233.7V214.378H1273.85V200.378ZM1365.58 207.378H1358.58V214.378H1365.58V207.378ZM1365.58 41.4321H1372.58V34.4321H1365.58V41.4321ZM1341.19 41.4321H1334.19V48.4321H1341.19V41.4321ZM1341.19 1.98779V-5.01221H1334.19V1.98779H1341.19ZM1431.05 1.98779H1438.05V-5.01221H1431.05V1.98779ZM1431.05 41.4321V48.4321H1438.05V41.4321H1431.05ZM1406.66 41.4321V34.4321H1399.66V41.4321H1406.66ZM1406.66 207.378V214.378H1413.66V207.378H1406.66ZM1372.58 207.378V41.4321H1358.58V207.378H1372.58ZM1365.58 34.4321H1341.19V48.4321H1365.58V34.4321ZM1348.19 41.4321V1.98779H1334.19V41.4321H1348.19ZM1341.19 8.98779H1431.05V-5.01221H1341.19V8.98779ZM1424.05 1.98779V41.4321H1438.05V1.98779H1424.05ZM1431.05 34.4321H1406.66V48.4321H1431.05V34.4321ZM1399.66 41.4321V207.378H1413.66V41.4321H1399.66ZM1406.66 200.378H1365.58V214.378H1406.66V200.378ZM1445.87 195.242L1440.63 199.876L1440.64 199.888L1440.65 199.9L1445.87 195.242ZM1433.5 130.59V123.59H1426.5V130.59H1433.5ZM1474.11 130.59H1481.11V123.59H1474.11V130.59ZM1476.21 167.467L1469.99 170.669L1470.04 170.776L1470.1 170.882L1476.21 167.467ZM1491.5 168.167L1485.71 164.237L1485.66 164.309L1485.61 164.382L1491.5 168.167ZM1491.85 141.677L1485.13 143.632L1485.13 143.649L1485.14 143.665L1491.85 141.677ZM1485.32 129.54L1479.8 133.845L1479.84 133.907L1479.89 133.967L1485.32 129.54ZM1472.6 116.003L1467.78 121.08L1467.78 121.088L1467.79 121.096L1472.6 116.003ZM1454.16 98.498L1458.98 93.4214L1458.97 93.414L1458.96 93.4066L1454.16 98.498ZM1445.64 13.8911L1440.41 9.23782L1440.4 9.25024L1440.39 9.26271L1445.64 13.8911ZM1521.03 15.1748L1515.51 19.4901L1515.52 19.5033L1515.53 19.5165L1521.03 15.1748ZM1532.93 60.9209V67.9209H1539.93V60.9209H1532.93ZM1491.15 60.9209H1484.15V67.9209H1491.15V60.9209ZM1488.7 40.2651L1483.75 45.2149L1483.81 45.2752L1483.87 45.3341L1488.7 40.2651ZM1475.05 40.7319L1469.67 36.2506L1469.66 36.2622L1469.65 36.2738L1475.05 40.7319ZM1484.38 68.623L1489.23 63.5748L1489.22 63.5603L1489.2 63.5459L1484.38 68.623ZM1508.07 91.3794L1503.22 96.4276L1503.24 96.44L1503.25 96.4523L1508.07 91.3794ZM1521.14 105.733L1515.64 110.054L1515.65 110.075L1515.67 110.096L1521.14 105.733ZM1530.71 123.238L1524.13 125.612L1524.13 125.624L1524.14 125.637L1530.71 123.238ZM1523.59 192.908L1517.73 189.083L1517.72 189.093L1523.59 192.908ZM1486.48 202.246C1468.73 202.246 1457.55 197.817 1451.1 190.583L1440.65 199.9C1450.85 211.338 1466.74 216.246 1486.48 216.246V202.246ZM1451.12 190.607C1444.53 183.149 1440.5 170.356 1440.5 150.663H1426.5C1426.5 171.736 1430.72 188.662 1440.63 199.876L1451.12 190.607ZM1440.5 150.663V130.59H1426.5V150.663H1440.5ZM1433.5 137.59H1474.11V123.59H1433.5V137.59ZM1467.11 130.59V156.264H1481.11V130.59H1467.11ZM1467.11 156.264C1467.11 161.569 1467.87 166.558 1469.99 170.669L1482.44 164.266C1481.75 162.93 1481.11 160.451 1481.11 156.264H1467.11ZM1470.1 170.882C1473.06 176.181 1478.23 178.435 1483.8 178.435V164.435C1482.86 164.435 1482.5 164.262 1482.46 164.24C1482.45 164.233 1482.44 164.229 1482.45 164.23C1482.45 164.231 1482.45 164.232 1482.44 164.229C1482.44 164.228 1482.4 164.184 1482.32 164.053L1470.1 170.882ZM1483.8 178.435C1488.77 178.435 1494.19 176.935 1497.39 171.953L1485.61 164.382C1485.65 164.321 1485.71 164.25 1485.78 164.194C1485.85 164.14 1485.87 164.142 1485.79 164.174C1485.61 164.25 1485.03 164.435 1483.8 164.435V178.435ZM1497.29 172.098C1500 168.115 1500.72 162.749 1500.72 157.431H1486.72C1486.72 162.071 1485.96 163.863 1485.71 164.237L1497.29 172.098ZM1500.72 157.431C1500.72 150.724 1500.06 144.749 1498.56 139.688L1485.14 143.665C1486.13 147.007 1486.72 151.535 1486.72 157.431H1500.72ZM1498.57 139.721C1497.04 134.45 1494.38 129.578 1490.74 125.113L1479.89 133.967C1482.47 137.127 1484.17 140.346 1485.13 143.632L1498.57 139.721ZM1490.84 125.235C1487.5 120.961 1482.98 116.178 1477.4 110.91L1467.79 121.096C1473.1 126.098 1477.06 130.34 1479.8 133.845L1490.84 125.235ZM1477.42 110.926L1458.98 93.4214L1449.34 103.575L1467.78 121.08L1477.42 110.926ZM1458.96 93.4066C1446.39 81.5448 1440.5 68.456 1440.5 53.9189H1426.5C1426.5 72.8356 1434.38 89.4663 1449.35 103.59L1458.96 93.4066ZM1440.5 53.9189C1440.5 37.3932 1444.33 25.9658 1450.89 18.5195L1440.39 9.26271C1430.77 20.1771 1426.5 35.4349 1426.5 53.9189H1440.5ZM1450.87 18.5444C1457.38 11.2205 1467.05 7.12061 1481 7.12061V-6.87939C1464.14 -6.87939 1450.23 -1.79898 1440.41 9.23782L1450.87 18.5444ZM1481 7.12061C1498.74 7.12061 1509.52 11.8388 1515.51 19.4901L1526.54 10.8595C1516.81 -1.56141 1500.91 -6.87939 1481 -6.87939V7.12061ZM1515.53 19.5165C1522.06 27.7686 1525.93 41.1554 1525.93 60.9209H1539.93C1539.93 39.7639 1535.86 22.6533 1526.52 10.8332L1515.53 19.5165ZM1532.93 53.9209H1491.15V67.9209H1532.93V53.9209ZM1498.15 60.9209V46.8003H1484.15V60.9209H1498.15ZM1498.15 46.8003C1498.15 42.5771 1496.87 38.3789 1493.53 35.1962L1483.87 45.3341C1483.9 45.3602 1483.93 45.3923 1483.98 45.5238C1484.04 45.685 1484.15 46.0728 1484.15 46.8003H1498.15ZM1493.65 35.3154C1490.48 32.1496 1486.39 30.9312 1482.28 30.9312V44.9312C1482.98 44.9312 1483.37 45.0317 1483.54 45.0932C1483.68 45.1451 1483.72 45.1854 1483.75 45.2149L1493.65 35.3154ZM1482.28 30.9312C1477.7 30.9312 1472.97 32.2839 1469.67 36.2506L1480.42 45.2132C1480.42 45.212 1480.42 45.2147 1480.42 45.2191C1480.41 45.2236 1480.41 45.2258 1480.41 45.2254C1480.41 45.2248 1480.42 45.2185 1480.44 45.2077C1480.46 45.1968 1480.5 45.1798 1480.55 45.1593C1480.77 45.0747 1481.29 44.9312 1482.28 44.9312V30.9312ZM1469.65 36.2738C1466.9 39.5966 1465.83 43.6308 1465.83 47.7339H1479.83C1479.83 46.0798 1480.23 45.4461 1480.44 45.1901L1469.65 36.2738ZM1465.83 47.7339C1465.83 51.8772 1466.95 56.003 1468.82 60.0219L1481.51 54.1177C1480.27 51.4458 1479.83 49.3478 1479.83 47.7339H1465.83ZM1468.82 60.0219C1470.92 64.54 1474.73 69.1081 1479.56 73.7002L1489.2 63.5459C1484.86 59.4245 1482.52 56.2904 1481.51 54.1177L1468.82 60.0219ZM1479.53 73.6713L1503.22 96.4276L1512.92 86.3312L1489.23 63.5748L1479.53 73.6713ZM1503.25 96.4523C1507.75 100.735 1511.88 105.269 1515.64 110.054L1526.65 101.412C1522.47 96.0836 1517.88 91.0482 1512.9 86.3065L1503.25 96.4523ZM1515.67 110.096C1519.11 114.412 1521.94 119.557 1524.13 125.612L1537.3 120.865C1534.66 113.538 1531.11 107.014 1526.62 101.371L1515.67 110.096ZM1524.14 125.637C1526.19 131.26 1527.33 138.486 1527.33 147.512H1541.33C1541.33 137.399 1540.06 128.443 1537.29 120.84L1524.14 125.637ZM1527.33 147.512C1527.33 166.053 1523.87 179.669 1517.73 189.083L1529.46 196.733C1537.63 184.207 1541.33 167.559 1541.33 147.512H1527.33ZM1517.72 189.093C1512.38 197.32 1502.72 202.246 1486.48 202.246V216.246C1505.57 216.246 1520.65 210.279 1529.46 196.723L1517.72 189.093Z" fill="black" mask="url(#path-1-inside-1_1277_22167)"/>
</svg>
