<svg width="1535" height="210" viewBox="0 0 1535 210" fill="none" xmlns="http://www.w3.org/2000/svg">
<path d="M49.7842 209.867C32.6684 209.867 20.0648 205.083 11.9737 195.513C3.88255 185.866 -0.163025 171.707 -0.163025 153.035V2.60938H39.7481V151.401C39.7481 154.824 39.9426 158.131 40.3316 161.32C40.7206 164.432 41.6153 167 43.0157 169.022C44.4161 171.045 46.6723 172.057 49.7842 172.057C52.974 172.057 55.2691 171.084 56.6695 169.139C58.0699 167.116 58.9257 164.51 59.2369 161.32C59.6259 158.131 59.8204 154.824 59.8204 151.401V2.60938H99.7315V153.035C99.7315 171.707 95.6859 185.866 87.5948 195.513C79.5036 205.083 66.9001 209.867 49.7842 209.867ZM110.706 208V2.60938H164.971C176.33 2.60938 185.316 5.13786 191.929 10.1948C198.619 15.2518 203.404 22.4482 206.283 31.7842C209.161 41.1201 210.6 52.2454 210.6 65.1602C210.6 77.6081 209.395 88.4611 206.983 97.7192C204.571 106.9 200.253 114.018 194.029 119.075C187.883 124.132 179.131 126.661 167.772 126.661H151.084V208H110.706ZM151.084 89.7837H153.418C161.042 89.7837 165.71 87.6442 167.422 83.3652C169.133 79.0863 169.989 72.7845 169.989 64.46C169.989 56.68 169.133 50.6895 167.422 46.4883C165.788 42.2093 161.859 40.0698 155.635 40.0698H151.084V89.7837ZM266.737 209.867C251.878 209.867 239.897 205.238 230.794 195.98C221.769 186.722 217.257 173.768 217.257 157.119V62.3594C217.257 42.4427 221.186 27.194 229.044 16.6133C236.979 6.03255 249.855 0.742188 267.671 0.742188C277.396 0.742188 286.032 2.53158 293.578 6.11035C301.203 9.68913 307.193 15.0573 311.55 22.2148C315.907 29.2946 318.085 38.2415 318.085 49.0557V84.5322H277.24V54.1904C277.24 48.0443 276.462 43.9209 274.906 41.8203C273.35 39.6419 270.939 38.5527 267.671 38.5527C263.859 38.5527 261.291 39.9531 259.969 42.7539C258.646 45.4769 257.985 49.1335 257.985 53.7236V156.536C257.985 162.215 258.802 166.222 260.436 168.556C262.147 170.89 264.559 172.057 267.671 172.057C271.172 172.057 273.623 170.617 275.023 167.739C276.501 164.86 277.24 161.126 277.24 156.536V119.542H318.552V158.403C318.552 176.452 314.001 189.562 304.898 197.73C295.796 205.822 283.075 209.867 266.737 209.867ZM376.556 209.867C360.14 209.867 347.576 204.927 338.862 195.046C330.226 185.088 325.909 170.734 325.909 151.984V54.4238C325.909 36.8411 330.188 23.4985 338.746 14.396C347.381 5.29346 359.985 0.742188 376.556 0.742188C393.127 0.742188 405.692 5.29346 414.25 14.396C422.886 23.4985 427.204 36.8411 427.204 54.4238V151.984C427.204 170.734 422.847 185.088 414.133 195.046C405.497 204.927 392.972 209.867 376.556 209.867ZM376.906 172.057C383.13 172.057 386.242 166.027 386.242 153.968V53.7236C386.242 43.6097 383.208 38.5527 377.14 38.5527C370.293 38.5527 366.87 43.7264 366.87 54.0737V154.202C366.87 160.581 367.648 165.171 369.204 167.972C370.76 170.695 373.327 172.057 376.906 172.057ZM438.995 208V2.60938H501.546L518.817 127.828L535.972 2.60938H599.106V208H561.529V60.0254L537.956 208H501.079L476.105 60.0254V208H438.995ZM610.664 208V2.60938H650.342V208H610.664ZM661.9 208V2.60938H704.145L723.05 100.987V2.60938H762.728V208H722.583L702.044 105.305V208H661.9ZM818.515 209.867C789.184 209.867 774.519 188.861 774.519 146.85V58.2749C774.519 19.9198 791.324 0.742188 824.933 0.742188C838.781 0.742188 849.401 3.54297 856.792 9.14453C864.183 14.6683 869.279 22.7594 872.08 33.418C874.88 44.0765 876.281 57.069 876.281 72.3955H836.136V54.1904C836.136 49.7559 835.514 46.0604 834.269 43.104C833.102 40.0698 830.612 38.5527 826.8 38.5527C822.055 38.5527 818.904 40.1476 817.348 43.3374C815.869 46.5272 815.13 50.0282 815.13 53.8403V153.385C815.13 158.909 815.831 163.421 817.231 166.922C818.709 170.345 821.549 172.057 825.75 172.057C830.107 172.057 832.985 170.345 834.386 166.922C835.864 163.421 836.603 158.831 836.603 153.151V123.86H825.633V88.3833H875.814V208H859.359L852.357 190.729C845.2 203.488 833.919 209.867 818.515 209.867ZM938.607 208V2.60938H1020.76V42.2871H980.386V82.3149H1019.13V120.942H980.386V167.972H1023.45V208H938.607ZM1051.23 208L1025.9 2.49268H1065L1080.05 142.298L1093.47 2.49268H1132.57L1107.24 208H1051.23ZM1139.81 208V2.60938H1221.96V42.2871H1181.58V82.3149H1220.33V120.942H1181.58V167.972H1224.65V208H1139.81ZM1233.52 208V2.60938H1275.77L1294.67 100.987V2.60938H1334.35V208H1294.2L1273.67 105.305V208H1233.52ZM1365.4 208V42.0537H1341.01V2.60938H1430.86V42.0537H1406.47V208H1365.4ZM1486.3 209.867C1467.55 209.867 1454.01 205.199 1445.69 195.863C1437.44 186.527 1433.32 171.668 1433.32 151.284V131.212H1473.93V156.886C1473.93 161.632 1474.63 165.366 1476.03 168.089C1477.51 170.734 1480.04 172.057 1483.62 172.057C1487.35 172.057 1489.92 170.967 1491.32 168.789C1492.8 166.611 1493.54 163.032 1493.54 158.053C1493.54 151.751 1492.91 146.5 1491.67 142.298C1490.42 138.019 1488.25 133.974 1485.13 130.162C1482.1 126.272 1477.86 121.759 1472.41 116.625L1453.97 99.1196C1440.2 86.1271 1433.32 71.2674 1433.32 54.5405C1433.32 37.0356 1437.36 23.693 1445.46 14.5127C1453.62 5.33236 1465.41 0.742188 1480.82 0.742188C1499.64 0.742188 1512.99 5.76025 1520.84 15.7964C1528.78 25.8325 1532.75 41.0812 1532.75 61.5425H1490.97V47.4219C1490.97 44.6211 1490.15 42.4427 1488.52 40.8867C1486.96 39.3307 1484.82 38.5527 1482.1 38.5527C1478.83 38.5527 1476.42 39.4863 1474.86 41.3535C1473.39 43.1429 1472.65 45.4769 1472.65 48.3555C1472.65 51.234 1473.42 54.346 1474.98 57.6914C1476.54 61.0368 1479.61 64.8879 1484.2 69.2446L1507.89 92.001C1512.64 96.5133 1516.99 101.298 1520.96 106.355C1524.93 111.334 1528.12 117.169 1530.53 123.86C1532.94 130.473 1534.15 138.564 1534.15 148.133C1534.15 167.428 1530.57 182.56 1523.41 193.529C1516.33 204.421 1503.96 209.867 1486.3 209.867Z" fill="black"/>
</svg>
